<svg viewBox="0 0 512 512" xmlns="http://www.w3.org/2000/svg" fill-rule="evenodd" clip-rule="evenodd" stroke-linejoin="round" stroke-miterlimit="2"><path d="M70.841 466.724l-15.475-412.7C54.841 40.4 65.291 28.85 78.916 28L429.94 6.05c13.875-.875 25.8 9.675 26.675 23.525.025.525.05 1.05.05 1.575v449.724c0 13.875-11.275 25.125-25.15 25.125-.375 0-.75 0-1.125-.025L94.841 490.899c-13.075-.575-23.5-11.1-24-24.175z" fill="#ff4785" fill-rule="nonzero"/><path d="M402.34 7.775l-48.3 3.025-2.35 56.65c-.05.875.225 1.725.75 2.425a3.747 3.747 0 005.25.725l22.025-16.7 18.575 14.65c.7.55 1.575.825 2.45.8a3.747 3.747 0 003.625-3.875l-2.025-57.7zm-37.6 189.75c-8.825 6.875-74.724 11.55-74.724 1.775 1.4-37.325-15.3-38.95-24.6-38.95-8.8 0-23.65 2.65-23.65 22.65 0 20.375 21.7 31.875 47.175 45.375 36.175 19.174 79.974 42.4 79.974 100.8 0 55.974-45.474 86.899-103.5 86.899-59.85 0-112.174-24.225-106.274-108.2 2.325-9.85 78.45-7.525 78.45 0-.95 34.65 6.95 44.85 26.9 44.85 15.325 0 22.275-8.45 22.275-22.65 0-21.525-22.6-34.225-48.625-48.825-35.225-19.775-76.675-43.05-76.675-96.474 0-53.3 36.675-88.85 102.1-88.85 65.45 0 101.174 35 101.174 101.6z" fill="#fff"/></svg>