<svg viewBox="0 0 512 512" xmlns="http://www.w3.org/2000/svg" fill-rule="evenodd" clip-rule="evenodd" stroke-linejoin="round" stroke-miterlimit="2"><path d="M177.484 419.672H34.125l37.11-87.89h100.39L283.344 72.796H163.422l-87.89 204.687h53.906c3.906 6.25 10.546 10.547 18.359 10.547 11.719 0 21.484-9.765 21.484-21.484 0-11.719-9.765-21.485-21.484-21.485-8.594 0-16.016 5.079-19.531 12.5h-25.782l73.047-165.234h78.516l-94.14 219.531-99.22.782L6 439.203h184.375l24.219-52.734h80.078l26.562 52.734H506L339.203 72.797 177.484 419.672zm47.266-53.906l28.906-62.891 31.25 62.89H224.75zm108.594 56.25l-18.36-36.72h57.032c3.906 7.032 10.937 11.72 19.14 11.72 11.719 0 21.485-9.766 21.485-21.485s-9.766-21.484-21.485-21.484c-8.593 0-16.406 5.469-19.922 12.89h-64.843l-43.36-85.156 32.031-70.312L331 284.906h16.797c3.515 7.031 10.937 12.5 19.531 12.5 11.719 0 21.484-9.765 21.484-21.484 0-11.719-9.765-21.485-21.484-21.485-8.984 0-16.797 5.47-19.922 13.672h-6.25l-37.11-75.78 35.548-77.735 139.062 307.422H333.344z" fill="#00bcb4" fill-rule="nonzero"/></svg>